<?xml version="1.0" standalone="no"?>
<!DOCTYPE svg PUBLIC "-//W3C//DTD SVG 20010904//EN"
 "http://www.w3.org/TR/2001/REC-SVG-20010904/DTD/svg10.dtd">
<svg version="1.0" xmlns="http://www.w3.org/2000/svg"
 width="64px" height="64px" viewBox="0 0 180.000000 180.000000"
 preserveAspectRatio="xMidYMid meet">

<g transform="translate(0.000000,180.000000) scale(0.100000,-0.100000)"
fill="#000000" stroke="none">
<path d="M54 1781 c-17 -10 -36 -32 -42 -47 -9 -22 -12 -234 -10 -851 l3 -823
28 -27 27 -28 840 0 840 0 27 28 28 27 3 824 c1 527 -1 833 -8 850 -5 14 -24
35 -42 46 -32 19 -51 20 -848 20 -780 0 -816 -1 -846 -19z m1057 -305 c132
-28 228 -99 277 -205 23 -48 27 -70 27 -151 0 -79 -4 -104 -24 -148 -29 -65
-99 -129 -158 -145 -24 -6 -43 -14 -43 -17 0 -3 16 -12 36 -19 50 -18 104 -69
125 -117 18 -40 39 -211 39 -316 l0 -48 -159 0 -158 0 -6 133 c-6 147 -22 204
-65 234 -24 16 -57 18 -319 21 l-293 3 0 124 0 124 308 3 c287 3 309 4 342 23
49 29 72 77 67 139 -4 41 -10 55 -40 82 -19 18 -52 37 -74 43 -23 7 -151 11
-320 11 l-283 0 0 120 0 120 328 0 c242 0 344 -4 393 -14z m-339 -1003 c14
-13 18 -31 18 -90 l0 -73 -200 0 -200 0 0 90 0 90 182 0 c155 0 184 -2 200
-17z"/>
</g>
</svg>
