<svg width="64px" height="64px" viewBox="-4 0 264 264" version="1.1" xmlns="http://www.w3.org/2000/svg" xmlns:xlink="http://www.w3.org/1999/xlink" preserveAspectRatio="xMidYMid">
    <g>
        <path d="M255.855641,59.619717 C255.950565,59.9710596 256,60.3333149 256,60.6972536 L256,117.265345 C256,118.743206 255.209409,120.108149 253.927418,120.843385 L206.448786,148.178786 L206.448786,202.359798 C206.448786,203.834322 205.665123,205.195421 204.386515,205.937838 L105.27893,262.990563 C105.05208,263.119455 104.804608,263.201946 104.557135,263.289593 C104.464333,263.320527 104.376687,263.377239 104.278729,263.403017 C103.585929,263.58546 102.857701,263.58546 102.164901,263.403017 C102.051476,263.372083 101.948363,263.310215 101.840093,263.26897 C101.613244,263.186479 101.376082,263.1143 101.159544,262.990563 L2.07258227,205.937838 C0.7913718,205.201819 0,203.837372 0,202.359798 L0,32.6555248 C0,32.2843161 0.0515567729,31.9234187 0.144358964,31.5728326 C0.175293028,31.454252 0.24747251,31.3459828 0.288717928,31.2274022 C0.366053087,31.0108638 0.438232569,30.7891697 0.55165747,30.5880982 C0.628992629,30.4540506 0.742417529,30.3457814 0.83521972,30.2220451 C0.953800298,30.0570635 1.06206952,29.8869261 1.20127281,29.7425672 C1.31985339,29.6239866 1.4745237,29.5363401 1.60857131,29.4332265 C1.75808595,29.3094903 1.89213356,29.1754427 2.06227091,29.0774848 L2.06742659,29.0774848 L51.6134853,0.551122364 C52.8901903,-0.183535768 54.4613221,-0.183535768 55.7380271,0.551122364 L105.284086,29.0774848 L105.294397,29.0774848 C105.459379,29.1805983 105.598582,29.3094903 105.748097,29.4280708 C105.882144,29.5311844 106.031659,29.6239866 106.15024,29.7374115 C106.294599,29.8869261 106.397712,30.0570635 106.521448,30.2220451 C106.609095,30.3457814 106.727676,30.4540506 106.799855,30.5880982 C106.918436,30.7943253 106.985459,31.0108638 107.06795,31.2274022 C107.109196,31.3459828 107.181375,31.454252 107.212309,31.5779883 C107.307234,31.9293308 107.355765,32.2915861 107.356668,32.6555248 L107.356668,138.651094 L148.643332,114.878266 L148.643332,60.6920979 C148.643332,60.3312005 148.694889,59.9651474 148.787691,59.619717 C148.823781,59.4959808 148.890804,59.3877116 148.93205,59.269131 C149.014541,59.0525925 149.08672,58.8308984 149.200145,58.629827 C149.27748,58.4957794 149.390905,58.3875102 149.478552,58.2637739 C149.602288,58.0987922 149.705401,57.9286549 149.84976,57.7842959 C149.968341,57.6657153 150.117856,57.5780688 150.251903,57.4749553 C150.406573,57.351219 150.540621,57.2171714 150.705603,57.1192136 L150.710758,57.1192136 L200.261973,28.5928511 C201.538395,27.8571345 203.110093,27.8571345 204.386515,28.5928511 L253.932573,57.1192136 C254.107866,57.2223271 254.241914,57.351219 254.396584,57.4697996 C254.525476,57.5729132 254.674991,57.6657153 254.793572,57.7791402 C254.93793,57.9286549 255.041044,58.0987922 255.16478,58.2637739 C255.257582,58.3875102 255.371007,58.4957794 255.443187,58.629827 C255.561767,58.8308984 255.628791,59.0525925 255.711282,59.269131 C255.757683,59.3877116 255.824707,59.4959808 255.855641,59.619717 Z" fill="#FFFFFF">
</path>
    </g>
</svg> 